<svg version="1.1" id="Layer_1" xmlns="http://www.w3.org/2000/svg" xmlns:xlink="http://www.w3.org/1999/xlink" x="0px" y="0px"
	 width="100%" viewBox="0 0 1024 1024" enable-background="new 0 0 1024 1024" xml:space="preserve">
<path fill="#000000" opacity="1.000000" stroke="none" 
	d="
M369.734955,171.947418 
	C393.630463,182.870605 394.912811,216.801254 372.528961,229.970062 
	C370.898468,230.929306 369.397797,231.950180 369.397034,234.112839 
	C369.393372,244.581467 369.395355,255.050095 369.395355,265.779785 
	C374.881226,266.348022 379.617493,264.601044 384.232513,263.151337 
	C402.373901,257.452515 420.912720,255.724167 439.855499,255.826950 
	C489.847229,256.098206 539.841797,256.049438 589.834290,255.870941 
	C609.784668,255.799713 629.298035,257.920685 648.292236,264.312073 
	C655.862671,266.859467 656.639221,266.087524 656.650146,258.198669 
	C656.659607,251.366165 656.470642,244.526459 656.732483,237.703873 
	C656.888489,233.640411 655.596558,231.078812 652.144348,228.633911 
	C631.846863,214.258652 633.515503,184.695602 655.098206,172.988937 
	C676.238892,161.522034 702.134766,176.851059 702.420593,200.799652 
	C702.576782,213.890732 697.037537,223.493454 686.017090,230.133545 
	C683.917053,231.398819 683.019714,232.957062 683.032532,235.395645 
	C683.104919,249.226807 683.121643,263.058655 683.055298,276.889832 
	C683.041931,279.680237 684.051880,281.519775 686.422974,283.039276 
	C715.384583,301.599152 734.266052,327.897827 745.182434,360.188324 
	C746.472778,364.005005 748.151855,365.750793 752.538818,365.771118 
	C768.842957,365.846771 782.266907,379.624207 782.325623,395.937469 
	C782.386780,412.935181 782.359985,429.933319 782.337280,446.931213 
	C782.317688,461.607849 771.259827,475.060486 756.737244,477.028015 
	C751.857849,477.689087 751.283020,479.676605 751.289734,483.726715 
	C751.378906,537.553406 751.280090,591.380371 751.376648,645.207031 
	C751.439636,680.319397 741.788879,712.788025 725.296814,743.479431 
	C705.324524,780.647583 676.376892,809.545166 641.288635,832.152344 
	C611.403259,851.407471 578.406921,863.319580 542.951050,867.364441 
	C471.360870,875.531555 408.826752,853.898926 354.237091,808.138062 
	C317.024689,776.944153 292.442719,737.428589 280.383972,690.298157 
	C274.353699,666.729553 272.795044,642.755920 274.436584,618.531372 
	C274.594147,616.206238 274.634979,613.869446 274.635956,611.538025 
	C274.654205,568.876526 274.611511,526.214905 274.737244,483.553741 
	C274.749725,479.312073 273.839661,477.653168 269.102631,477.072113 
	C255.473389,475.400330 243.853592,461.712036 243.705231,447.710114 
	C243.519852,430.214203 243.482742,412.712524 243.709473,395.217621 
	C243.910324,379.719727 257.841187,365.856415 273.376831,365.762360 
	C277.726501,365.735992 279.437683,364.130096 280.751312,360.264587 
	C290.423523,331.802979 306.442749,307.745087 330.611328,289.459961 
	C331.807220,288.555176 332.879700,287.358673 334.218719,286.792664 
	C342.282776,283.384216 344.485565,277.438385 343.840576,268.910736 
	C343.038483,258.305939 343.525574,247.592377 343.712891,236.930313 
	C343.775940,233.341614 342.574158,231.216812 339.446136,229.336823 
	C326.802063,221.737534 321.177429,206.919373 325.156586,192.597168 
	C329.018524,178.696869 341.564972,169.047089 356.292206,168.984085 
	C360.776154,168.964890 365.203705,169.992065 369.734955,171.947418 
M312.067078,702.538391 
	C316.013855,713.183777 320.897034,723.390625 326.566986,733.217529 
	C349.211761,772.464355 382.057983,800.624512 422.414490,820.233398 
	C451.054199,834.149231 481.393860,841.966675 513.417419,841.521057 
	C525.510437,841.352783 537.566284,839.599182 549.546875,837.659851 
	C581.296753,832.520569 610.269348,820.812317 636.412109,801.933838 
	C664.553406,781.612244 687.557068,756.863770 703.782837,726.011963 
	C714.657776,705.334290 722.304810,683.535828 724.373108,660.255188 
	C725.650757,645.873901 725.149475,631.332214 725.054382,616.836792 
	C724.612671,549.517883 724.763184,482.195190 724.648254,414.873932 
	C724.636353,407.899597 724.653503,400.952972 723.842407,393.953369 
	C721.821716,376.515564 717.432922,359.678192 708.232117,344.862915 
	C684.535278,306.705597 649.248413,285.997681 604.819397,284.732635 
	C547.545410,283.101807 490.189270,284.441467 432.869171,284.274902 
	C420.793121,284.239807 408.983704,285.645905 397.303833,288.419769 
	C342.584747,301.415009 301.267365,344.309052 301.316132,408.997345 
	C301.360840,468.320465 301.329651,527.643616 301.299194,586.966797 
	C301.296204,592.796509 301.197479,598.632629 300.916229,604.454773 
	C299.319855,637.497559 299.217438,670.363525 312.067078,702.538391 
z"/>
<path fill="#000000" opacity="1.000000" stroke="none" 
	d="
M360.153931,729.658020 
	C350.634125,707.022583 348.313263,683.600037 349.816254,659.827637 
	C352.304138,620.477905 367.089447,586.528320 395.166626,558.346863 
	C408.568115,544.895569 422.678833,532.637756 439.781891,524.247925 
	C458.959290,514.840515 479.351013,510.313293 500.637970,508.409302 
	C524.414917,506.282562 546.975037,510.738129 569.201294,518.210876 
	C593.435242,526.358643 613.644287,541.010620 631.278442,559.000366 
	C656.383545,584.611877 671.314880,615.383545 675.454407,651.269531 
	C680.381042,693.979797 670.189087,732.939819 644.290039,766.840393 
	C619.078735,799.840820 585.485840,821.635376 544.349304,829.117676 
	C485.754669,839.775513 434.829407,824.177246 392.821686,781.080627 
	C378.367371,766.251648 368.152161,748.939819 360.153931,729.658020 
M426.200867,737.555054 
	C426.989349,737.288635 427.770111,736.996216 428.567505,736.759827 
	C436.459076,734.420227 436.268829,734.456665 434.866882,726.528748 
	C432.670929,714.111206 430.298157,701.692932 428.948486,689.172729 
	C428.360535,683.718628 426.093872,682.411804 421.482239,682.431458 
	C411.163879,682.475403 400.845123,682.435120 390.526550,682.437134 
	C378.081879,682.439636 377.512970,681.446472 379.129272,694.850708 
	C381.243134,712.381165 387.163574,728.372192 395.648224,743.640381 
	C397.341217,746.686829 399.080383,747.407959 402.446960,746.060059 
	C410.008331,743.032593 417.752289,740.461121 426.200867,737.555054 
M638.821899,721.417419 
	C644.270752,710.643311 648.176636,699.435303 649.065308,687.261719 
	C649.316223,683.823792 648.514465,682.285645 644.867004,682.392700 
	C630.891052,682.803162 616.911438,683.162415 602.932861,682.430725 
	C599.332336,682.242249 597.604919,683.730774 597.104370,687.547485 
	C595.186157,702.175598 594.427551,716.952942 591.514832,731.451965 
	C591.109009,733.471863 592.068481,734.564575 593.884399,735.205139 
	C603.134460,738.467957 612.395264,741.701904 621.606506,745.071350 
	C624.141541,745.998596 625.536804,745.190613 626.992310,743.093445 
	C631.574097,736.491821 635.027832,729.292664 638.821899,721.417419 
M624.500000,658.697632 
	C631.323669,658.693665 638.155701,658.482910 644.967957,658.760010 
	C649.350708,658.938293 650.261597,656.734802 649.531433,653.243774 
	C645.633850,634.608948 639.876343,616.640137 630.284668,600.049866 
	C628.978394,597.790527 627.646790,597.176880 625.042542,598.012024 
	C615.554016,601.055054 606.033508,604.029602 596.415222,606.622437 
	C592.472717,607.685242 591.552979,609.443787 592.389526,613.276489 
	C595.330017,626.748291 597.232544,640.381165 597.274841,654.194763 
	C597.285828,657.798096 598.712341,658.783569 602.031677,658.716675 
	C609.184998,658.572388 616.343567,658.687439 624.500000,658.697632 
M430.608734,622.290771 
	C431.209686,619.201477 431.645233,616.067749 432.458313,613.035339 
	C433.262970,610.034302 433.006927,608.019531 429.558014,606.976074 
	C420.657715,604.283142 411.828583,601.355530 402.961731,598.550903 
	C400.536652,597.783813 398.752899,598.656128 397.571655,600.878052 
	C388.752716,617.467163 379.812927,633.934326 377.992310,653.242065 
	C377.512604,658.329529 379.216248,658.784485 383.228912,658.743286 
	C396.043182,658.611755 408.862915,658.523499 421.673370,658.778625 
	C426.235077,658.869507 427.918060,657.423584 427.705811,652.821289 
	C427.244690,642.824097 428.615601,632.953247 430.608734,622.290771 
M500.794006,649.326782 
	C501.075592,640.185486 501.312469,631.042480 501.662964,621.903809 
	C501.786469,618.682556 500.527649,616.824036 497.243774,616.508362 
	C486.350403,615.461060 475.430573,614.626221 464.574585,613.277771 
	C459.140839,612.602844 457.284454,615.030945 456.347321,619.822449 
	C454.181122,630.897644 452.875580,642.079590 451.472504,653.260193 
	C450.935822,657.536987 452.386078,658.824341 456.571838,658.752991 
	C468.381287,658.551453 480.196564,658.696106 492.009521,658.691650 
	C499.941467,658.688660 500.443787,658.194336 500.794006,649.326782 
M452.095551,688.696594 
	C452.705627,700.832153 455.109192,712.700806 457.442688,724.579407 
	C458.000305,727.417847 459.068909,728.580200 462.550964,727.989563 
	C474.149872,726.022217 485.779053,724.007263 497.579956,723.678162 
	C501.075256,723.580688 501.677734,721.739502 501.662201,718.864136 
	C501.606384,708.546082 501.533936,698.225952 501.688171,687.909912 
	C501.748108,683.901123 500.406036,682.270447 496.192505,682.344910 
	C483.061737,682.576965 469.925201,682.494263 456.790924,682.511292 
	C453.206482,682.515930 451.555725,684.183777 452.095551,688.696594 
M531.096741,616.382935 
	C524.386047,616.544128 524.363464,616.544067 524.351562,622.939819 
	C524.332703,633.092041 524.463989,643.246338 524.286560,653.395447 
	C524.222107,657.081360 525.042542,658.849121 529.234253,658.773804 
	C541.878906,658.546753 554.531006,658.605469 567.178345,658.735596 
	C571.174988,658.776733 572.938843,657.455200 572.719666,653.221741 
	C572.083984,640.937927 570.290833,628.831543 567.997559,616.763428 
	C567.319519,613.195740 565.413757,613.069458 562.663635,613.622559 
	C552.534485,615.660156 542.304138,616.605591 531.096741,616.382935 
M549.669861,725.636902 
	C554.106567,726.245605 558.554993,726.780457 562.976074,727.487122 
	C566.295837,728.017700 568.187866,727.246521 568.955750,723.501953 
	C571.261353,712.258179 572.554077,700.886963 573.568237,689.489197 
	C574.067200,683.880798 572.741699,682.544128 567.132446,682.507874 
	C554.654236,682.427246 542.180359,683.398376 529.691589,682.538818 
	C526.148315,682.294983 524.230774,683.975708 524.295776,687.947449 
	C524.464722,698.269897 524.445801,708.598267 524.302124,718.921448 
	C524.254395,722.349548 525.525391,723.555847 528.935181,723.747864 
	C535.559631,724.120911 542.158020,724.957214 549.669861,725.636902 
M549.190674,591.635315 
	C551.488525,591.314758 553.779968,590.790405 556.085571,590.718262 
	C560.237366,590.588440 561.297424,588.882507 559.927612,584.960266 
	C556.454163,575.014404 552.031189,565.568970 545.949158,556.942200 
	C541.992676,551.330322 537.493896,546.227539 531.649048,542.494629 
	C530.039001,541.466370 528.446899,539.646973 526.267273,540.900085 
	C524.251892,542.058716 524.369812,544.253784 524.367798,546.254944 
	C524.353638,560.062683 524.432373,573.871155 524.304565,587.677734 
	C524.270142,591.395752 525.853577,592.561523 529.370789,592.714172 
	C535.726013,592.990051 541.966675,591.834229 549.190674,591.635315 
M478.940399,780.590637 
	C484.426514,789.118042 490.178741,797.346558 500.548218,800.447998 
	C501.032776,799.828857 501.407318,799.573730 501.408539,799.316772 
	C501.486298,783.029175 501.546539,766.741516 501.571442,750.453796 
	C501.575714,747.674500 499.599884,747.239014 497.437042,747.404785 
	C491.321686,747.873535 485.187286,748.232727 479.110626,749.021912 
	C474.291779,749.647766 469.291870,749.795654 464.494965,752.235168 
	C468.330292,762.158813 473.173706,771.201416 478.940399,780.590637 
M550.756287,774.293091 
	C554.085876,768.714355 556.860657,762.868164 559.222046,756.819092 
	C561.410950,751.211792 561.357056,750.793945 555.252991,749.801941 
	C546.751221,748.420288 538.208008,747.329590 529.549866,747.243774 
	C525.717651,747.205811 524.228943,748.423523 524.285095,752.400208 
	C524.468201,765.363464 524.343872,778.330811 524.366089,791.296631 
	C524.370972,794.123047 524.910339,796.831421 526.748535,799.903320 
	C537.539490,794.065857 544.262939,784.785217 550.756287,774.293091 
M492.136200,544.616211 
	C479.630371,557.526062 471.409302,572.904968 465.476440,589.971619 
	C466.956299,590.601501 467.966156,591.336792 469.036316,591.438660 
	C477.964447,592.288391 486.855286,593.489563 495.850067,593.715881 
	C500.353241,593.829163 501.712128,591.905640 501.672363,587.794495 
	C501.570892,577.301086 501.677521,566.805847 501.632477,556.311584 
	C501.616089,552.490173 501.788422,548.608459 501.190338,544.863525 
	C500.396240,539.891113 498.489288,539.361084 494.503815,542.460083 
	C493.847931,542.970093 493.256561,543.563110 492.136200,544.616211 
M583.342590,757.990723 
	C578.273865,770.854126 572.617126,783.461548 565.598389,797.073059 
	C582.101013,786.751221 598.024109,778.357178 610.690613,764.305298 
	C602.366455,760.684937 594.054932,759.071472 585.978699,756.732605 
	C585.096375,756.477173 584.349731,756.741821 583.342590,757.990723 
M432.299225,780.179626 
	C439.985352,785.342102 448.218475,789.331665 456.851410,792.394653 
	C457.610321,790.910461 457.162415,790.164307 456.805237,789.436096 
	C451.902649,779.440674 445.336670,770.296692 441.606232,759.696716 
	C441.149170,758.398010 440.221100,757.101257 438.668121,757.531433 
	C431.406006,759.542664 424.144928,761.601929 416.545990,765.449951 
	C422.055908,770.782288 426.146973,776.013000 432.299225,780.179626 
M439.535706,583.840088 
	C441.418762,584.296692 441.795837,582.787109 442.252472,581.611938 
	C446.170105,571.529480 451.355499,562.058411 456.220459,552.431702 
	C456.791199,551.302368 457.758484,550.175293 456.178467,547.569031 
	C441.009399,554.182556 428.498199,564.198608 416.863007,577.289185 
	C424.931335,579.645508 431.897522,581.679932 439.535706,583.840088 
M597.181152,582.617554 
	C601.343994,581.089417 605.810974,580.378052 609.734314,578.104187 
	C604.493652,570.259705 585.781494,555.527222 577.101440,552.385986 
	C575.884216,551.945374 574.551941,551.138550 573.351624,552.252441 
	C571.875427,553.622375 573.033752,555.099609 573.574097,556.375549 
	C576.360657,562.955383 579.371948,569.441406 582.088928,576.049011 
	C586.086487,585.770508 586.008789,585.802490 597.181152,582.617554 
z"/>
<path fill="#000000" opacity="1.000000" stroke="none" 
	d="
M468.000000,343.979279 
	C512.828369,343.986572 557.157410,343.856689 601.484863,344.062500 
	C622.114441,344.158264 640.788940,350.281464 654.847351,365.998932 
	C673.646851,387.016998 678.403198,411.685181 669.156250,438.092712 
	C660.251343,463.523468 641.293762,477.914246 614.759949,482.474701 
	C610.283264,483.244171 605.834290,483.391754 601.340881,483.391693 
	C541.514160,483.390869 481.685333,483.089142 421.861664,483.513000 
	C390.579559,483.734650 360.393555,463.217712 353.176819,428.731140 
	C344.726288,388.348755 372.570465,347.682434 415.043396,344.606567 
	C432.520691,343.340851 450.016754,344.354523 468.000000,343.979279 
M571.007324,425.406372 
	C581.105164,443.626312 607.265015,442.637451 616.196655,428.181671 
	C622.368896,418.191864 622.056030,407.845886 614.949951,398.445435 
	C608.291870,389.637634 596.169312,385.789490 585.432373,389.075500 
	C571.706421,393.276337 564.713867,410.143829 571.007324,425.406372 
M406.026184,419.359161 
	C410.509552,434.416260 421.137054,441.227875 436.064178,438.611664 
	C446.564423,436.771301 454.554657,428.663330 457.113770,417.251923 
	C458.997314,408.852814 454.359802,398.847015 445.830139,392.906860 
	C437.501465,387.106628 424.114624,386.320312 416.599518,391.577484 
	C407.203094,398.150726 403.959320,407.410767 406.026184,419.359161 
z"/>
</svg>